<svg width="152" height="42" viewBox="0 0 152 42" fill="none" xmlns="http://www.w3.org/2000/svg">
<rect width="152" height="42" rx="5" fill="#C90404"/>
<path d="M49.7526 28L46.9266 23.95C48.5646 23.248 49.5186 21.862 49.5186 19.972C49.5186 17.146 47.4126 15.4 44.0466 15.4H38.5926V28H41.5086V24.49H44.0466H44.1906L46.6206 28H49.7526ZM46.5666 19.972C46.5666 21.34 45.6666 22.168 43.8846 22.168H41.5086V17.776H43.8846C45.6666 17.776 46.5666 18.586 46.5666 19.972ZM61.117 23.194C61.117 20.08 58.921 18.172 56.077 18.172C53.125 18.172 50.911 20.26 50.911 23.158C50.911 26.038 53.089 28.144 56.437 28.144C58.183 28.144 59.533 27.604 60.433 26.578L58.939 24.958C58.273 25.588 57.535 25.894 56.509 25.894C55.033 25.894 54.007 25.156 53.737 23.95H61.063C61.081 23.716 61.117 23.41 61.117 23.194ZM56.095 20.296C57.355 20.296 58.273 21.088 58.471 22.312H53.701C53.899 21.07 54.817 20.296 56.095 20.296ZM70.3124 18.316V19.558C69.5744 18.622 68.4584 18.172 67.1084 18.172C64.4264 18.172 62.2664 20.026 62.2664 22.852C62.2664 25.678 64.4264 27.532 67.1084 27.532C68.3684 27.532 69.4304 27.136 70.1684 26.326V26.74C70.1684 28.486 69.3044 29.386 67.3244 29.386C66.0824 29.386 64.7324 28.954 63.9044 28.288L62.7884 30.304C63.9224 31.186 65.7044 31.636 67.5404 31.636C71.0324 31.636 72.9764 29.98 72.9764 26.38V18.316H70.3124ZM67.6664 25.228C66.1904 25.228 65.1104 24.274 65.1104 22.852C65.1104 21.43 66.1904 20.476 67.6664 20.476C69.1424 20.476 70.2044 21.43 70.2044 22.852C70.2044 24.274 69.1424 25.228 67.6664 25.228ZM76.9939 16.966C78.0379 16.966 78.7399 16.282 78.7399 15.346C78.7399 14.482 78.0379 13.834 76.9939 13.834C75.9499 13.834 75.2479 14.518 75.2479 15.4C75.2479 16.282 75.9499 16.966 76.9939 16.966ZM75.5899 28H78.3979V18.316H75.5899V28ZM84.262 28.144C87.16 28.144 88.834 26.866 88.834 25.066C88.834 21.25 82.984 22.852 82.984 21.196C82.984 20.692 83.524 20.296 84.784 20.296C85.666 20.296 86.62 20.476 87.574 21.016L88.51 19.018C87.592 18.478 86.116 18.172 84.784 18.172C81.958 18.172 80.302 19.468 80.302 21.304C80.302 25.174 86.152 23.554 86.152 25.138C86.152 25.678 85.666 26.02 84.37 26.02C83.182 26.02 81.868 25.642 81.004 25.084L80.068 27.1C80.968 27.694 82.624 28.144 84.262 28.144ZM96.0565 25.552C95.7505 25.786 95.3365 25.912 94.9225 25.912C94.1665 25.912 93.7165 25.462 93.7165 24.634V20.692H96.1285V18.532H93.7165V16.174H90.9085V18.532H89.4145V20.692H90.9085V24.67C90.9085 26.974 92.2405 28.144 94.5265 28.144C95.3905 28.144 96.2365 27.946 96.8125 27.532L96.0565 25.552ZM107.576 23.194C107.576 20.08 105.38 18.172 102.536 18.172C99.5839 18.172 97.3699 20.26 97.3699 23.158C97.3699 26.038 99.5479 28.144 102.896 28.144C104.642 28.144 105.992 27.604 106.892 26.578L105.398 24.958C104.732 25.588 103.994 25.894 102.968 25.894C101.492 25.894 100.466 25.156 100.196 23.95H107.522C107.54 23.716 107.576 23.41 107.576 23.194ZM102.554 20.296C103.814 20.296 104.732 21.088 104.93 22.312H100.16C100.358 21.07 101.276 20.296 102.554 20.296ZM112.127 19.594V18.316H109.445V28H112.253V23.428C112.253 21.574 113.279 20.728 114.827 20.728C115.043 20.728 115.223 20.746 115.457 20.764V18.172C113.963 18.172 112.811 18.658 112.127 19.594Z" fill="white"/>
</svg>
