<?xml version="1.0" encoding="UTF-8"?>
<svg width="17px" height="17px" viewBox="0 0 17 17" version="1.1" xmlns="http://www.w3.org/2000/svg" xmlns:xlink="http://www.w3.org/1999/xlink">
    <title>Caution</title>
    <g id="Page-1" stroke="none" stroke-width="1" fill="none" fill-rule="evenodd">
        <g id="Home" transform="translate(-647.000000, -3222.000000)" fill="#FFFFFF" fill-rule="nonzero">
            <g id="Group-26" transform="translate(236.000000, 3202.000000)">
                <g id="Caution" transform="translate(411.000000, 20.000000)">
                    <path d="M8.5,0 C3.80557963,0 0,3.80557963 0,8.5 C0,13.1944204 3.80557963,17 8.5,17 C13.1944204,17 17,13.1944204 17,8.5 C17,6.24565984 16.1044669,4.08365158 14.5104076,2.48959236 C12.9163484,0.895533143 10.7543402,0 8.5,0 Z M8.5,15.3 C4.7444637,15.3 1.7,12.2555363 1.7,8.5 C1.7,4.7444637 4.7444637,1.7 8.5,1.7 C12.2555363,1.7 15.3,4.7444637 15.3,8.5 C15.3,10.3034721 14.5835735,12.0330787 13.3083261,13.3083261 C12.0330787,14.5835735 10.3034721,15.3 8.5,15.3 Z" id="Shape"></path>
                    <rect id="Rectangle" x="8" y="7" width="2" height="6"></rect>
                    <rect id="Rectangle" x="8" y="3" width="2" height="2"></rect>
                </g>
            </g>
        </g>
    </g>
</svg>