<?xml version="1.0" encoding="UTF-8"?>
<svg width="21px" height="15px" viewBox="0 0 21 15" version="1.1" xmlns="http://www.w3.org/2000/svg" xmlns:xlink="http://www.w3.org/1999/xlink">
    <title>Shape</title>
    <g id="Page-1" stroke="none" stroke-width="1" fill="none" fill-rule="evenodd">
        <g id="Home" transform="translate(-1154.000000, -2975.000000)" fill="#FFFFFF" fill-rule="nonzero">
            <g id="Group-29" transform="translate(236.000000, 2955.000000)">
                <g id="Group-8" transform="translate(513.000000, 0.000000)">
                    <path d="M423.240079,34.8679245 L407.482143,34.8679245 C406.295388,34.8679245 405.333333,33.8745035 405.333333,32.6490566 L405.333333,22.2943396 C405.333333,21.0688927 406.295388,20.0754717 407.482143,20.0754717 L423.240079,20.0754717 C424.426834,20.0754717 425.388889,21.0688927 425.388889,22.2943396 L425.388889,32.6490566 C425.388889,33.8745035 424.426834,34.8679245 423.240079,34.8679245 Z M407.482143,21.554717 C407.086558,21.554717 406.765873,21.8858573 406.765873,22.2943396 L406.765873,32.6490566 C406.765873,33.0575389 407.086558,33.3886792 407.482143,33.3886792 L423.240079,33.3886792 C423.635664,33.3886792 423.956349,33.0575389 423.956349,32.6490566 L423.956349,22.2943396 C423.956349,21.8858573 423.635664,21.554717 423.240079,21.554717 L407.482143,21.554717 Z" id="Shape"></path>
                </g>
            </g>
        </g>
    </g>
</svg>