<svg width="16" height="22" viewBox="0 0 16 22" fill="none" xmlns="http://www.w3.org/2000/svg">
<path fill-rule="evenodd" clip-rule="evenodd" d="M7.83335 9.56605C10.2818 9.56605 12.2667 7.64003 12.2667 5.26417C12.2667 2.8883 10.2818 0.96228 7.83335 0.96228C5.38488 0.96228 3.40001 2.8883 3.40001 5.26417C3.40001 7.64003 5.38488 9.56605 7.83335 9.56605ZM7.83335 2.39624C9.46566 2.39624 10.7889 3.68026 10.7889 5.26417C10.7889 6.84808 9.46566 8.13209 7.83335 8.13209C6.20104 8.13209 4.87779 6.84808 4.87779 5.26417C4.87779 3.68026 6.20104 2.39624 7.83335 2.39624ZM0.444458 18.1698C0.444458 14.2101 3.75258 11 7.83335 11C11.9141 11 15.2222 14.2101 15.2222 18.1698V20.3208C15.2222 20.7167 14.8914 21.0378 14.4833 21.0378C14.0753 21.0378 13.7445 20.7167 13.7445 20.3208V18.1698C13.7445 15.002 11.098 12.434 7.83335 12.434C4.56873 12.434 1.92224 15.002 1.92224 18.1698V20.3208C1.92224 20.7167 1.59142 21.0378 1.18335 21.0378C0.77527 21.0378 0.444458 20.7167 0.444458 20.3208V18.1698Z" fill="white"/>
</svg>
