<?xml version="1.0" encoding="UTF-8"?>
<svg width="13px" height="17px" viewBox="0 0 13 17" version="1.1" xmlns="http://www.w3.org/2000/svg" xmlns:xlink="http://www.w3.org/1999/xlink">
    <title>Shape</title>
    <g id="Page-1" stroke="none" stroke-width="1" fill="none" fill-rule="evenodd">
        <g id="Home" transform="translate(-647.000000, -3140.000000)" fill="#FFFFFF" fill-rule="nonzero" stroke="#FFFFFF" stroke-width="0.3">
            <g id="Group-27" transform="translate(236.000000, 3120.000000)">
                <g id="Flag" transform="translate(411.000000, 21.000000)">
                    <path d="M2.61365388,0 L1.05481459,0 C0.899588048,0.00207505931 0.773670394,0.125696739 0.769474734,0.280136986 L0.769474734,14.4520548 L0.275291707,14.4520548 C0.123252296,14.4520548 0,14.5747165 0,14.7260274 C0,14.8773383 0.123252296,15 0.275291707,15 L3.39297029,15 C3.54500971,15 3.668262,14.8773383 3.668262,14.7260274 C3.668262,14.5747165 3.54500971,14.4520548 3.39297029,14.4520548 L2.90298547,14.4520548 L2.90298547,7.19205479 L3.67641752,7.61482877 C4.84356466,8.24565306 6.27300188,8.14209143 7.33604224,7.34969178 C8.22828959,6.68564393 9.42720465,6.59890073 10.4065771,7.12753425 L11.5934285,7.77061644 C11.6786934,7.81679288 11.7821007,7.81482732 11.8655316,7.76544432 C11.9489626,7.71606131 12,7.62657246 12,7.52996575 L12,1.81797945 C12,1.71762397 11.9448703,1.62529869 11.8562977,1.57732877 L10.6691022,0.934246575 C9.500127,0.303541939 8.06931138,0.407056451 7.00428132,1.19938356 C6.11435365,1.86338569 4.91715452,1.95016644 3.93994051,1.42150685 L2.90298547,0.856164384 L2.90298547,0.280136986 C2.89689268,0.124976522 2.76966996,0.00179678605 2.61365388,0 Z M2.90298547,1.48010274 L3.67652075,1.90280822 C4.84428387,2.5335577 6.27415468,2.43004107 7.33790046,1.63773973 C8.22976587,0.973720445 9.42837492,0.886956848 10.407403,1.41554795 L11.4500703,1.98061644 L11.4494853,7.06876712 L10.6691022,6.64623288 C9.50005918,6.01547619 8.06915248,6.11897712 7.00404044,6.91133562 C6.11407555,7.57532756 4.91686689,7.66213284 3.93959639,7.1335274 L2.90298547,6.56828767 L2.90298547,1.48010274 Z M1.32005815,14.4520548 L1.32005815,0.547945205 L2.35240205,0.547945205 L2.35240205,14.4520548 L1.32005815,14.4520548 Z" id="Shape"></path>
                </g>
            </g>
        </g>
    </g>
</svg>