<?xml version="1.0" encoding="UTF-8"?>
<svg width="12px" height="12px" viewBox="0 0 12 12" version="1.1" xmlns="http://www.w3.org/2000/svg" xmlns:xlink="http://www.w3.org/1999/xlink">
    <title>Instagram</title>
    <g id="Page-1" stroke="none" stroke-width="1" fill="none" fill-rule="evenodd">
        <g id="Home" transform="translate(-1158.000000, -3224.000000)" fill="#FFFFFF" fill-rule="nonzero">
            <g id="Group-26" transform="translate(236.000000, 3202.000000)">
                <g id="Group-20" transform="translate(513.000000, 0.000000)">
                    <g id="Instagram" transform="translate(409.000000, 22.000000)">
                        <path d="M6,0 C4.3705,0 4.16625,0.007 3.52625,0.036 C2.8875,0.06525 2.45125,0.16675 2.06975,0.315 C1.67525,0.46825 1.3405,0.6735 1.00725,1.007 C0.6735,1.3405 0.46825,1.67525 0.315,2.06975 C0.16675,2.4515 0.065,2.8875 0.036,3.52625 C0.007,4.16625 0,4.3705 0,6 C0,7.6295 0.007,7.83375 0.036,8.47375 C0.06525,9.1125 0.16675,9.54875 0.315,9.93025 C0.46825,10.32475 0.6735,10.6595 1.007,10.99275 C1.3405,11.3265 1.67525,11.53175 2.06975,11.68525 C2.4515,11.83325 2.8875,11.93475 3.52625,11.964 C4.16625,11.993 4.3705,12 6,12 C7.6295,12 7.83375,11.993 8.47375,11.964 C9.1125,11.93475 9.54875,11.83325 9.93025,11.685 C10.32475,11.53175 10.6595,11.3265 10.99275,10.993 C11.3265,10.6595 11.53175,10.32475 11.68525,9.93025 C11.83325,9.5485 11.93475,9.1125 11.964,8.47375 C11.993,7.83375 12,7.6295 12,6 C12,4.3705 11.993,4.16625 11.964,3.52625 C11.93475,2.8875 11.83325,2.45125 11.685,2.06975 C11.53175,1.67525 11.3265,1.3405 10.993,1.00725 C10.6595,0.6735 10.32475,0.46825 9.93025,0.315 C9.5485,0.16675 9.1125,0.065 8.47375,0.036 C7.83375,0.007 7.6295,0 6,0 L6,0 Z M6,1.081 C7.602,1.081 7.79175,1.08725 8.4245,1.116 C9.0095,1.14275 9.327,1.2405 9.53875,1.32275 C9.81875,1.4315 10.01875,1.5615 10.22875,1.7715 C10.4385,1.9815 10.5685,2.1815 10.67725,2.4615 C10.75975,2.67275 10.85725,2.9905 10.884,3.5755 C10.91275,4.208 10.919,4.398 10.919,6 C10.919,7.602 10.91275,7.79175 10.884,8.4245 C10.85725,9.0095 10.7595,9.327 10.67725,9.53875 C10.5685,9.81875 10.4385,10.01875 10.2285,10.22875 C10.0185,10.4385 9.8185,10.5685 9.5385,10.67725 C9.32725,10.75975 9.0095,10.85725 8.4245,10.884 C7.792,10.91275 7.602,10.919 6,10.919 C4.39775,10.919 4.208,10.91275 3.5755,10.884 C2.9905,10.85725 2.673,10.7595 2.46125,10.67725 C2.18125,10.5685 1.98125,10.4385 1.77125,10.2285 C1.5615,10.0185 1.4315,9.8185 1.32275,9.5385 C1.24025,9.32725 1.14275,9.0095 1.116,8.4245 C1.08725,7.792 1.081,7.602 1.081,6 C1.081,4.398 1.08725,4.20825 1.116,3.5755 C1.14275,2.9905 1.2405,2.673 1.32275,2.46125 C1.4315,2.18125 1.5615,1.98125 1.7715,1.77125 C1.9815,1.5615 2.1815,1.4315 2.4615,1.32275 C2.67275,1.24025 2.9905,1.14275 3.5755,1.116 C4.208,1.08725 4.398,1.081 6,1.081 Z M6,2.919 C4.29825,2.919 2.919,4.29825 2.919,6 C2.919,7.70175 4.29825,9.081 6,9.081 C7.70175,9.081 9.081,7.70175 9.081,6 C9.081,4.29825 7.70175,2.919 6,2.919 Z M6,8 C4.8954305,8 4,7.1045695 4,6 C4,4.8954305 4.8954305,4 6,4 C7.1045695,4 8,4.8954305 8,6 C8,7.1045695 7.1045695,8 6,8 Z M9.92275,2.79725 C9.92275,3.19489502 9.60039502,3.51725 9.20275,3.51725 C8.80510498,3.51725 8.48275,3.19489502 8.48275,2.79725 C8.48275,2.39960498 8.80510498,2.07725 9.20275,2.07725 C9.60039502,2.07725 9.92275,2.39960498 9.92275,2.79725 L9.92275,2.79725 Z"></path>
                    </g>
                </g>
            </g>
        </g>
    </g>
</svg>