<?xml version="1.0" encoding="UTF-8"?>
<svg width="61px" height="60px" viewBox="0 0 61 60" version="1.1" xmlns="http://www.w3.org/2000/svg" xmlns:xlink="http://www.w3.org/1999/xlink">
    <title>Group 12</title>
    <g id="Page-1" stroke="none" stroke-width="1" fill="none" fill-rule="evenodd">
        <g id="Home" transform="translate(-728.000000, -3811.000000)" fill-rule="nonzero">
            <g id="Group-34" transform="translate(576.000000, 3811.000000)">
                <g id="Group-12" transform="translate(152.660000, 0.000000)">
                    <path d="M30,0 C13.4325,0 0,13.4325 0,30 C0,46.5675 13.4325,60 30,60 C46.5675,60 60,46.5675 60,30 C60,13.4325 46.5675,0 30,0 Z" id="OUTLINE_copy_2-path-Copy" fill="#C90404"></path>
                    <g id="Instagram" transform="translate(18.000000, 19.000000)" fill="#FFFFFF">
                        <path d="M6.66666667,0 C2.98476833,0 0,2.98476833 0,6.66666667 L0,17.3333333 C0,21.0152317 2.98476833,24 6.66666667,24 L17.3333333,24 C21.0152317,24 24,21.0152317 24,17.3333333 L24,6.66666667 C24,2.98476833 21.0152317,0 17.3333333,0 L6.66666667,0 Z M20,2.66666667 C20.7333333,2.66666667 21.3333333,3.26666667 21.3333333,4 C21.3333333,4.73333333 20.7333333,5.33333333 20,5.33333333 C19.2666667,5.33333333 18.6666667,4.73333333 18.6666667,4 C18.6666667,3.26666667 19.2666667,2.66666667 20,2.66666667 Z M12,5.33333333 C15.6818983,5.33333333 18.6666667,8.31810167 18.6666667,12 C18.6666667,15.6818983 15.6818983,18.6666667 12,18.6666667 C8.31810167,18.6666667 5.33333333,15.6818983 5.33333333,12 C5.33333333,8.31810167 8.31810167,5.33333333 12,5.33333333 L12,5.33333333 Z M11.9999997,7.99999977 C10.5704613,8.00047632 9.24976712,8.76356631 8.53541028,10.0018213 C7.82105344,11.2400764 7.8215617,12.765376 8.53674361,14.0031547 C9.25192552,15.2409334 10.5731279,16.0031431 12.0026667,16.0026669 C14.212542,16.0019302 16.003403,14.2098753 16.0026668,11.9999998 C16.0019302,9.79012465 14.2098753,7.99926367 11.9999997,7.99999977 Z" id="surface1"></path>
                    </g>
                </g>
            </g>
        </g>
    </g>
</svg>