<?xml version="1.0" encoding="UTF-8"?>
<svg width="15px" height="14px" viewBox="0 0 15 14" version="1.1" xmlns="http://www.w3.org/2000/svg" xmlns:xlink="http://www.w3.org/1999/xlink">
    <title>Linkedin</title>
    <g id="Page-1" stroke="none" stroke-width="1" fill="none" fill-rule="evenodd">
        <g id="Home" transform="translate(-1158.000000, -3389.000000)" fill-rule="nonzero" stroke="#FFFFFF" stroke-width="0.7">
            <g id="Group-24" transform="translate(236.000000, 3367.000000)">
                <g id="Group-14" transform="translate(513.000000, 0.000000)">
                    <g id="Linkedin" transform="translate(410.000000, 23.000000)">
                        <path d="M0,1.39393939 C0,0.989890909 0.146400579,0.656557576 0.439189189,0.393939394 C0.731977799,0.131309091 1.1126168,0 1.58108108,0 C2.04118822,0 2.41344498,0.129284848 2.69787645,0.387878788 C2.99066506,0.654545455 3.13706564,1.00201212 3.13706564,1.43030303 C3.13706564,1.81818182 2.99485618,2.14140606 2.71042471,2.4 C2.4176361,2.66666667 2.03281853,2.8 1.55598456,2.8 L1.54343629,2.8 C1.08332915,2.8 0.711072394,2.66666667 0.426640927,2.4 C0.142209459,2.13333333 0,1.79797576 0,1.39393939 Z M0.163127413,12 L0.163127413,3.9030303 L2.9488417,3.9030303 L2.9488417,12 L0.163127413,12 Z M4.49227799,12 L7.27799228,12 L7.27799228,7.47878788 C7.27799228,7.19595152 7.31145849,6.9777697 7.37837838,6.82424242 C7.49549131,6.54949091 7.67326255,6.31716364 7.91167954,6.12727273 C8.15009653,5.9373697 8.44915927,5.84242424 8.80888031,5.84242424 C9.74582143,5.84242424 10.2142857,6.45252121 10.2142857,7.67272727 L10.2142857,12 L13,12 L13,7.35757576 C13,6.16161212 12.7072114,5.25454545 12.1216216,4.63636364 C11.5360319,4.01818182 10.7622307,3.70909091 9.80019305,3.70909091 C8.72104247,3.70909091 7.88030888,4.15757576 7.27799228,5.05454545 L7.27799228,5.07878788 L7.26544402,5.07878788 L7.27799228,5.05454545 L7.27799228,3.9030303 L4.49227799,3.9030303 C4.50900483,4.16161212 4.51737452,4.96564848 4.51737452,6.31515152 C4.51737452,7.66464242 4.50900483,9.55958788 4.49227799,12 Z" id="Shape"></path>
                    </g>
                </g>
            </g>
        </g>
    </g>
</svg>