<?xml version="1.0" encoding="UTF-8"?>
<svg width="16px" height="15px" viewBox="0 0 16 15" version="1.1" xmlns="http://www.w3.org/2000/svg" xmlns:xlink="http://www.w3.org/1999/xlink">
    <title>Shape</title>
    <g id="Page-1" stroke="none" stroke-width="1" fill="none" fill-rule="evenodd">
        <g id="Home" transform="translate(-643.000000, -2977.000000)" fill="#FFFFFF" fill-rule="nonzero">
            <g id="Group-11" transform="translate(236.000000, 2955.000000)">
                <path d="M421.575694,22.1886792 L417.511806,26.2566038 C416.772917,26.0716981 415.849306,25.8867925 414.833333,25.8867925 C408.645139,25.8867925 407.444444,30.6018868 407.444444,30.6018868 C407.444444,30.6018868 408.368056,32.2660377 410.492361,33.3754717 L407.444444,36.3339623 L407.444444,36.9811321 L408.090972,36.9811321 L422.222222,22.8358491 L422.222222,22.1886792 L421.575694,22.1886792 Z M411.138889,32.6358491 C409.661111,31.9886792 408.829861,30.9716981 408.460417,30.509434 C408.7375,29.8622642 409.476389,28.4754717 411.323611,27.5509434 C411.23125,27.9207547 411.138889,28.290566 411.138889,28.7528302 C411.138889,29.7698113 411.600694,30.7867925 412.339583,31.4339623 L411.138889,32.6358491 Z M413.170833,29.4924528 L412.247222,29.6773585 C412.247222,29.6773585 411.970139,29.2150943 411.970139,28.5679245 C411.970139,27.8283019 412.339583,27.1811321 412.339583,27.1811321 C412.801389,26.9037736 413.540278,26.9037736 413.540278,26.9037736 C413.540278,26.9037736 413.078472,27.7358491 413.078472,28.4754717 C412.986111,29.1226415 413.170833,29.4924528 413.170833,29.4924528 Z" id="Shape"></path>
            </g>
        </g>
    </g>
</svg>