<?xml version="1.0" encoding="UTF-8"?>
<svg width="9px" height="15px" viewBox="0 0 9 15" version="1.1" xmlns="http://www.w3.org/2000/svg" xmlns:xlink="http://www.w3.org/1999/xlink">
    <title>phone-[#225]</title>
    <g id="Page-1" stroke="none" stroke-width="1" fill="none" fill-rule="evenodd">
        <g id="Home" transform="translate(-647.000000, -3059.000000)" fill="#FFFFFF" fill-rule="nonzero">
            <g id="Group-28" transform="translate(236.000000, 3038.000000)">
                <g id="Phone" transform="translate(411.000000, 21.000000)">
                    <path d="M7.5,2.25 C7.5,1.83578644 7.16421356,1.5 6.75,1.5 L2.25,1.5 C1.83578644,1.5 1.5,1.83578644 1.5,2.25 L1.5,12.75 C1.5,13.1642136 1.83578644,13.5 2.25,13.5 L6.75,13.5 C7.16421356,13.5 7.5,13.1642136 7.5,12.75 L7.5,2.25 Z M9,1.5 L9,13.5 C9,14.3284271 8.32842712,15 7.5,15 L1.5,15 C0.671572875,15 0,14.3284271 0,13.5 L0,1.5 C0,0.671572875 0.671572875,0 1.5,0 L7.5,0 C8.32842712,0 9,0.671572875 9,1.5 Z M5.26575,11.25 C5.26575,11.6642136 4.92996356,12 4.51575,12 C4.10153644,12 3.76575,11.6642136 3.76575,11.25 C3.76575,10.8357864 4.10153644,10.5 4.51575,10.5 C4.92996356,10.5 5.26575,10.8357864 5.26575,11.25 Z" id="phone-[#225]"></path>
                </g>
            </g>
        </g>
    </g>
</svg>