<?xml version="1.0" encoding="UTF-8"?>
<svg width="66px" height="54px" viewBox="0 0 66 54" version="1.1" xmlns="http://www.w3.org/2000/svg" xmlns:xlink="http://www.w3.org/1999/xlink">
    <title>Group 4</title>
    <g id="Page-1" stroke="none" stroke-width="1" fill="none" fill-rule="evenodd">
        <g id="Home" transform="translate(-988.000000, -102.000000)">
            <g id="Group-4" transform="translate(989.000000, 102.000000)">
                <path d="M13.2159682,22.1853888 C14.1374274,21.8568987 14.8624799,21.1305564 15.1903868,20.207458 C15.2421624,20.0819012 15.3643929,20 15.5,20 C15.6356071,20 15.7578376,20.0819012 15.8096132,20.207458 C16.1375201,21.1305564 16.8625726,21.8568987 17.7840318,22.1853888 C17.9137864,22.2332276 18,22.3570438 18,22.4955528 C18,22.6340618 17.9137864,22.757878 17.7840318,22.8057168 C16.8625726,23.134207 16.1375201,23.8605492 15.8096132,24.7836476 C15.7618594,24.9136331 15.6382631,25 15.5,25 C15.3617369,25 15.2381406,24.9136331 15.1903868,24.7836476 C14.8624799,23.8605492 14.1374274,23.134207 13.2159682,22.8057168 C13.0862136,22.757878 13,22.6340618 13,22.4955528 C13,22.3570438 13.0862136,22.2332276 13.2159682,22.1853888 L13.2159682,22.1853888 Z" id="Path" fill="#FFFFFF" fill-rule="nonzero"></path>
                <path d="M55.2098562,2.20991512 C56.1393048,1.87679536 56.8686596,1.14183015 57.1946475,0.20985621 C57.2443759,0.083256779 57.3665287,0 57.5025446,0 C57.6385605,0 57.7607133,0.083256779 57.8104417,0.20985621 C58.1384847,1.13877093 58.8646335,1.8723866 59.7901438,2.20991512 C59.9167432,2.25964352 60,2.38179631 60,2.51781223 C60,2.65382815 59.9167432,2.77598094 59.7901438,2.82570934 C58.8722042,3.15553013 58.1473591,3.87478512 57.8104417,4.79014379 C57.7607133,4.91674322 57.6385605,5 57.5025446,5 C57.3665287,5 57.2443759,4.91674322 57.1946475,4.79014379 C56.8596898,3.87173648 56.1316678,3.15118136 55.2098562,2.82570934 C55.0832568,2.77598094 55,2.65382815 55,2.51781223 C55,2.38179631 55.0832568,2.25964352 55.2098562,2.20991512 Z" id="Path" fill="#FFFFFF" fill-rule="nonzero"></path>
                <path d="M44,27.5023113 C44.0009275,27.299876 43.8797015,27.1168545 43.6929429,27.0387386 C43.5061843,26.9606227 43.2907518,27.0028294 43.1472767,27.1456433 C43.0038017,27.2884572 42.9606005,27.5036926 43.0378529,27.6908102 C43.1151053,27.8779277 43.2975648,28 43.5,28 C43.7752431,28 43.9987263,27.7775495 44,27.5023113 Z" id="Path" fill="#FFFFFF" fill-rule="nonzero"></path>
                <path d="M64,50 C64,48.343145 62.6568517,47 61,47 C59.343145,47 58,48.343145 58,50 C58,51.6568517 59.343145,53 61,53 C61.7960113,53.0011856 62.5597636,52.6854971 63.1226303,52.1226303 C63.6854971,51.5597636 64.0011856,50.7960113 64,50 Z" id="Path" stroke="#FFFFFF" stroke-width="2" stroke-linecap="round" stroke-linejoin="round"></path>
                <line x1="38" y1="9.5" x2="32" y2="9.5" id="Path" stroke="#B51D1D" stroke-width="2" stroke-linecap="round" stroke-linejoin="round"></line>
                <line x1="26" y1="41.5" x2="20" y2="41.5" id="Path" stroke="#B51D1D" stroke-width="2" stroke-linecap="round" stroke-linejoin="round"></line>
                <line x1="64" y1="32.5" x2="58" y2="32.5" id="Path" stroke="#B51D1D" stroke-width="2" stroke-linecap="round" stroke-linejoin="round"></line>
                <line x1="3" y1="18.5" x2="0" y2="18.5" id="Path" stroke="#B51D1D" stroke-width="2" stroke-linecap="round" stroke-linejoin="round"></line>
            </g>
        </g>
    </g>
</svg>