<?xml version="1.0" encoding="UTF-8"?>
<svg width="17px" height="14px" viewBox="0 0 17 14" version="1.1" xmlns="http://www.w3.org/2000/svg" xmlns:xlink="http://www.w3.org/1999/xlink">
    <title>Twitter</title>
    <g id="Page-1" stroke="none" stroke-width="1" fill="none" fill-rule="evenodd">
        <g id="Home" transform="translate(-643.000000, -3388.000000)" fill="#FFFFFF" fill-rule="nonzero" stroke="#FFFFFF" stroke-width="0.4">
            <g id="Group-24" transform="translate(236.000000, 3367.000000)">
                <g id="Group-13" transform="translate(-0.000000, 0.000000)">
                    <g id="Twitter" transform="translate(408.000000, 22.000000)">
                        <path d="M4.98579178,12 C3.58360174,12 1.96097439,11.6493764 0.166171139,10.6680116 C0.0305174047,10.5936946 -0.0320920109,10.4368033 0.0161694137,10.2932509 C0.0644308382,10.1496985 0.209867293,10.0550555 0.363782107,10.0760167 C1.54683919,10.2081358 2.83881057,9.93818103 3.80403906,9.386203 C2.69859156,9.13339833 1.80510303,8.43405677 1.33357587,7.41839179 C1.28066471,7.30479303 1.30108663,7.17153146 1.38575038,7.07793123 C1.47053396,6.98392347 1.60357897,6.94771777 1.72618908,6.98392347 C1.86836463,7.02648104 2.00988799,7.05569967 2.14619391,7.07157936 C1.30683643,6.58375527 0.408130443,5.65002949 0.408130443,4.25071119 C0.408157233,4.12839563 0.480303335,4.01696515 0.593617049,3.96422501 C0.706930763,3.91148488 0.841271862,3.92680904 0.939006113,4.00362321 C1.04335514,4.0861976 1.15487816,4.15543305 1.27031427,4.21005919 C1.00824182,3.86366754 0.815934616,3.47204805 0.703568623,3.0559233 C0.487044394,2.24161279 0.612915406,1.4158689 1.06683367,0.670158652 C1.12166126,0.580616424 1.21804524,0.522909043 1.32483318,0.515688206 C1.43162111,0.50846737 1.53526825,0.552648955 1.60227461,0.633952959 C2.56228565,1.80206297 4.26839223,3.21344983 7.01146725,3.47070081 C6.9605971,2.62526611 7.22146966,1.23992194 8.4201791,0.558365634 C9.89476127,-0.280082008 11.3132558,-0.172100115 12.5321829,0.867701998 C13.0721891,0.750827479 13.9245902,0.390040918 14.1013314,0.26999046 C14.2135275,0.193483849 14.3628535,0.193413383 14.4751257,0.26981407 C14.5873979,0.346214757 14.6386862,0.482802351 14.6035111,0.611721393 C14.5219884,0.910894756 14.3374211,1.24373306 14.1078532,1.54100086 C14.2898118,1.48828029 14.4430744,1.43492453 14.5245971,1.39427252 C14.6552974,1.32871149 14.8148792,1.35643668 14.9142426,1.46196817 C15.013606,1.56749967 15.0281767,1.72473771 14.9498194,1.84589091 C14.5663367,2.43661539 13.9461122,2.98668786 13.531977,3.28522603 C13.7556752,5.96889367 12.1454393,8.96761436 9.56084439,10.638793 C8.60213771,11.2581009 7.02646742,12 4.98579178,12 Z M1.72814562,10.7023117 C5.21796836,12.0965485 7.86060745,10.974172 9.19953589,10.1084113 C11.6491293,8.52425341 13.1563205,5.66972031 12.8647954,3.16644595 C12.8506487,3.04748489 12.906692,2.93094274 13.0095797,2.86536702 C13.1850165,2.75293882 13.4530631,2.54650284 13.7230662,2.29052224 C13.4576283,2.34641875 13.2000167,2.38389482 13.0128406,2.38453 C12.8328385,2.36356881 12.7213155,2.2771833 12.6919674,2.12727902 C12.6618506,1.97753417 12.7457877,1.82819352 12.8915349,1.77220915 C13.0761022,1.70043295 13.3252355,1.48383398 13.5404554,1.21832556 C13.1713207,1.35743164 12.7721857,1.48065804 12.478704,1.52194523 C12.3805789,1.53579106 12.2813442,1.50513485 12.2093531,1.43873566 C11.1802108,0.497387623 10.0167192,0.385594604 8.74887853,1.10589735 C7.61082197,1.75378871 7.58538689,3.26362965 7.70538827,3.74065555 C7.73045173,3.83846062 7.70625242,3.94204508 7.64020744,4.01966026 C7.57416246,4.09727545 7.47414826,4.13966506 7.37081921,4.13383667 C4.45491611,3.9839324 2.56098129,2.64368655 1.42162036,1.40761146 C1.23263956,1.8826885 1.20251126,2.40375346 1.33553241,2.89649122 C1.52727375,3.61615877 2.00988799,4.1681368 2.37641395,4.37647834 C2.49332433,4.44290061 2.55595212,4.57275592 2.53379493,4.70279919 C2.51163773,4.83284246 2.40930224,4.93603646 2.27663019,4.96212131 C1.89209416,5.03117968 1.49525448,4.99036782 1.13400836,4.84461161 C1.47379487,6.16897777 2.88772417,6.792732 3.28555484,6.83592475 C3.41480716,6.85034821 3.52295844,6.93807775 3.56089994,7.05927762 C3.59884143,7.18047749 3.55934284,7.31205126 3.46033945,7.39425466 C3.17533618,7.62863889 2.74880953,7.74170228 2.26815183,7.71820034 C2.81337549,8.42579933 3.6586026,8.8323194 4.66883161,8.85391578 C4.80259739,8.85677119 4.92099856,8.93891952 4.96747318,9.06111732 C5.0139478,9.18331512 4.97906397,9.32076271 4.87948621,9.40779938 C4.07860743,10.1065057 2.92946378,10.5657464 1.72814562,10.7023117 Z" id="Shape"></path>
                    </g>
                </g>
            </g>
        </g>
    </g>
</svg>