<?xml version="1.0" encoding="UTF-8"?>
<svg width="61px" height="60px" viewBox="0 0 61 60" version="1.1" xmlns="http://www.w3.org/2000/svg" xmlns:xlink="http://www.w3.org/1999/xlink">
    <title>Group 33</title>
    <g id="Page-1" stroke="none" stroke-width="1" fill="none" fill-rule="evenodd">
        <g id="Home" transform="translate(-652.000000, -3811.000000)" fill-rule="nonzero">
            <g id="Group-34" transform="translate(576.000000, 3811.000000)">
                <g id="Group-33" transform="translate(76.330000, 0.000000)">
                    <path d="M30,0 C13.4325,0 0,13.4325 0,30 C0,46.5675 13.4325,60 30,60 C46.5675,60 60,46.5675 60,30 C60,13.4325 46.5675,0 30,0 Z" id="OUTLINE_copy_2-path" fill="#C90404"></path>
                    <g id="Twitter" transform="translate(15.000000, 18.000000)" fill="#FFFFFF">
                        <path d="M2.34375,0.929198597 C5.31945231,4.65346212 9.73405078,6.99296915 14.53125,7.3879382 C14.0937311,5.57540633 14.536892,3.66569027 15.7305455,2.2198065 C16.9241991,0.773922737 18.7327866,-0.0439252118 20.625,0.0065215107 C22.3850948,-0.0742693104 24.0945615,0.598705957 25.3125,1.85187568 C26.6852366,1.81953478 28.0066396,1.33184348 29.0625,0.467860054 C28.6762497,1.77489323 27.849725,2.9137322 26.71875,3.69722986 C27.879465,3.7035116 29.0178592,3.38339875 30,2.77455277 C29.3817963,4.23478291 28.2024389,5.39549335 26.71875,6.00392257 C26.9736108,10.6096235 25.3237567,15.1207908 22.144911,18.5100908 C18.9660652,21.8993909 14.5288472,23.8782881 9.84375,23.9961258 C6.35425137,24.0692947 2.92350557,23.1045798 0,21.2280945 C3.12571498,21.263157 6.20295637,20.4661604 8.90625,18.9214018 C6.4473883,18.5417192 4.34008222,16.9862288 3.28125,14.7693549 C4.24009907,14.7939921 5.19484941,14.637383 6.09375,14.3080163 C3.34700032,13.449872 1.34276949,11.1186863 0.9375,8.31061529 C1.80328296,8.79928726 2.75946011,9.11297357 3.75,9.23329237 C1.26088253,7.18744784 0.663356049,3.65897427 2.34375,0.929198597" id="Path"></path>
                    </g>
                </g>
            </g>
        </g>
    </g>
</svg>