<?xml version="1.0" encoding="UTF-8"?>
<svg width="16px" height="21px" viewBox="0 0 16 21" version="1.1" xmlns="http://www.w3.org/2000/svg" xmlns:xlink="http://www.w3.org/1999/xlink">
    <title>Shape</title>
    <g id="Page-1" stroke="none" stroke-width="1" fill="none" fill-rule="evenodd">
        <g id="Home" transform="translate(-1156.000000, -2890.000000)" fill="#FFFFFF" fill-rule="nonzero">
            <g id="Group-30" transform="translate(236.000000, 2873.000000)">
                <g id="Group-10" transform="translate(513.000000, 0.000000)">
                    <path d="M414.833333,26.5660377 C417.281796,26.5660377 419.266667,24.6400174 419.266667,22.2641509 C419.266667,19.8882845 417.281796,17.9622642 414.833333,17.9622642 C412.384871,17.9622642 410.4,19.8882845 410.4,22.2641509 C410.4,24.6400174 412.384871,26.5660377 414.833333,26.5660377 Z M414.833333,19.3962264 C416.465642,19.3962264 417.788889,20.68024 417.788889,22.2641509 C417.788889,23.8480619 416.465642,25.1320755 414.833333,25.1320755 C413.201025,25.1320755 411.877778,23.8480619 411.877778,22.2641509 C411.877778,20.68024 413.201025,19.3962264 414.833333,19.3962264 Z M414.833333,28 C410.752563,28 407.444444,31.2100339 407.444444,35.1698113 L407.444444,37.3207547 C407.444444,37.7167325 407.775256,38.0377358 408.183333,38.0377358 C408.59141,38.0377358 408.922222,37.7167325 408.922222,37.3207547 L408.922222,35.1698113 C408.922222,32.0019894 411.568717,29.4339623 414.833333,29.4339623 C418.09795,29.4339623 420.744444,32.0019894 420.744444,35.1698113 L420.744444,37.3207547 C420.744444,37.7167325 421.075256,38.0377358 421.483333,38.0377358 C421.89141,38.0377358 422.222222,37.7167325 422.222222,37.3207547 L422.222222,35.1698113 C422.222222,31.2100339 418.914104,28 414.833333,28 Z" id="Shape"></path>
                </g>
            </g>
        </g>
    </g>
</svg>