<?xml version="1.0" encoding="UTF-8"?>
<svg width="14px" height="13px" viewBox="0 0 14 13" version="1.1" xmlns="http://www.w3.org/2000/svg" xmlns:xlink="http://www.w3.org/1999/xlink">
    <title>work</title>
    <g id="Page-1" stroke="none" stroke-width="1" fill="none" fill-rule="evenodd">
        <g id="Home" transform="translate(-1157.000000, -3142.000000)" fill="#FFFFFF" fill-rule="nonzero">
            <g id="Group-27" transform="translate(236.000000, 3120.000000)">
                <g id="Group-23" transform="translate(513.000000, 0.000000)">
                    <g id="work" transform="translate(408.000000, 22.000000)">
                        <path d="M7.98746085,3.09920379 L7.98746085,1.83604589 L5.38746085,1.83604589 L5.38746085,3.09920379 L7.98746085,3.09920379 Z M1.48746085,4.99394063 L1.48746085,10.6781512 C1.48746085,11.0255196 1.77996085,11.3097301 2.13746085,11.3097301 L11.2374609,11.3097301 C11.5949609,11.3097301 11.8874609,11.0255196 11.8874609,10.6781512 L11.8874609,4.99394063 C11.8874609,4.64657221 11.5949609,4.36236168 11.2374609,4.36236168 L2.13746085,4.36236168 C1.77996085,4.36236168 1.48746085,4.64657221 1.48746085,4.99394063 Z M11.8874609,3.09920379 C12.6089609,3.09920379 13.1874609,3.66130905 13.1874609,4.36236168 L13.1874609,11.3097301 C13.1874609,12.0107827 12.6089609,12.572888 11.8874609,12.572888 L1.48746085,12.572888 C0.765960853,12.572888 0.187460853,12.0107827 0.187460853,11.3097301 L0.193960853,4.36236168 C0.193960853,3.66130905 0.765960853,3.09920379 1.48746085,3.09920379 L4.08746085,3.09920379 L4.08746085,1.83604589 C4.08746085,1.13499326 4.66596085,0.572887997 5.38746085,0.572887997 L7.98746085,0.572887997 C8.70896085,0.572887997 9.28746085,1.13499326 9.28746085,1.83604589 L9.28746085,3.09920379 L11.8874609,3.09920379 Z" id="Shape"></path>
                    </g>
                </g>
            </g>
        </g>
    </g>
</svg>