<?xml version="1.0" encoding="UTF-8"?>
<svg width="61px" height="60px" viewBox="0 0 61 60" version="1.1" xmlns="http://www.w3.org/2000/svg" xmlns:xlink="http://www.w3.org/1999/xlink">
    <title>Group 32</title>
    <g id="Page-1" stroke="none" stroke-width="1" fill="none" fill-rule="evenodd">
        <g id="Home" transform="translate(-804.000000, -3811.000000)" fill-rule="nonzero">
            <g id="Group-34" transform="translate(576.000000, 3811.000000)">
                <g id="Group-32" transform="translate(228.990000, 0.000000)">
                    <path d="M30,0 C13.4325,0 0,13.4325 0,30 C0,46.5675 13.4325,60 30,60 C46.5675,60 60,46.5675 60,30 C60,13.4325 46.5675,0 30,0 Z" id="OUTLINE_copy_2-path-Copy-2" fill="#C90404"></path>
                    <g id="Youtube" transform="translate(18.000000, 22.000000)" fill="#FFFFFF">
                        <path d="M23.3,4.3 C23.3,4.1 23,2.5 22.3,1.8 C21.4,0.8 20.4,0.7 19.9,0.7 L19.8,0.7 C16.7,0.5 12.1,0.5 12,0.5 C12,0.5 7.3,0.5 4.2,0.7 L4.1,0.7 C3.6,0.7 2.6,0.8 1.7,1.8 C1,2.6 0.7,4.2 0.7,4.4 C0.7,4.5 0.5,6.3 0.5,8.2 L0.5,9.9 C0.5,11.8 0.7,13.6 0.7,13.7 C0.7,13.9 1,15.5 1.7,16.2 C2.5,17.1 3.5,17.2 4.1,17.3 L4.4,17.3 C6.2,17.5 11.7,17.5 11.9,17.5 C11.9,17.5 16.6,17.5 19.7,17.3 L19.8,17.3 C20.3,17.2 21.3,17.1 22.2,16.2 C22.9,15.4 23.2,13.8 23.2,13.6 C23.2,13.5 23.4,11.7 23.4,9.8 L23.4,8.1 C23.5,6.3 23.3,4.4 23.3,4.3 L23.3,4.3 Z M15.9,9.2 L9.9,12.4 C9.8,12.4 9.8,12.5 9.7,12.5 C9.6,12.5 9.5,12.5 9.5,12.4 C9.4,12.3 9.3,12.2 9.3,12 L9.3,5.5 C9.3,5.3 9.4,5.2 9.5,5.1 C9.6,5 9.8,5 10,5.1 L16,8.3 C16.2,8.4 16.3,8.5 16.3,8.7 C16.3,8.9 16.1,9.1 15.9,9.2 L15.9,9.2 Z" id="Shape"></path>
                    </g>
                </g>
            </g>
        </g>
    </g>
</svg>