<?xml version="1.0" encoding="UTF-8"?>
<svg width="16px" height="11px" viewBox="0 0 16 11" version="1.1" xmlns="http://www.w3.org/2000/svg" xmlns:xlink="http://www.w3.org/1999/xlink">
    <title>Youtube</title>
    <g id="Page-1" stroke="none" stroke-width="1" fill="none" fill-rule="evenodd" stroke-linecap="round" stroke-linejoin="round">
        <g id="Home" transform="translate(-1158.000000, -3308.000000)" stroke="#FFFFFF">
            <g id="Group-25" transform="translate(236.000000, 3285.000000)">
                <g id="Group-21" transform="translate(513.000000, 0.000000)">
                    <g id="Youtube" transform="translate(409.000000, 23.000000)">
                        <path d="M14.862,1.463 C14.455,0.761 14.014,0.632 13.115,0.583 C12.217,0.524 9.958,0.5 8.002,0.5 C6.042,0.5 3.782,0.524 2.885,0.583 C1.988,0.633 1.546,0.761 1.135,1.463 C0.716,2.165 0.5,3.372 0.5,5.498 L0.5,5.506 C0.5,7.623 0.716,8.839 1.135,9.532 C1.545,10.233 1.987,10.361 2.885,10.42 C3.782,10.47 6.041,10.5 8.002,10.5 C9.958,10.5 12.217,10.47 13.116,10.42 C14.015,10.361 14.456,10.233 14.863,9.532 C15.287,8.838 15.501,7.622 15.501,5.506 L15.501,5.501 L15.501,5.498 C15.5,3.372 15.287,2.165 14.862,1.463 L14.862,1.463 Z" id="Path"></path>
                        <polygon id="Path" points="6.5 8 6.5 3 10.5 5.5"></polygon>
                    </g>
                </g>
            </g>
        </g>
    </g>
</svg>